<?xml version="1.0" encoding="utf-8"?>
<!-- Generator: Adobe Illustrator 25.4.1, SVG Export Plug-In . SVG Version: 6.00 Build 0)  -->
<svg version="1.1" xmlns="http://www.w3.org/2000/svg" xmlns:xlink="http://www.w3.org/1999/xlink" x="0px" y="0px"
	 viewBox="0 0 1600 600.5" style="enable-background:new 0 0 1600 600.5;" xml:space="preserve">
<style type="text/css">
	.st0{fill:none;}
	.st1{fill-rule:evenodd;clip-rule:evenodd;fill:#E45865;}
	
		.st2{fill-rule:evenodd;clip-rule:evenodd;fill:url(#path-4_00000118381301997150265190000003323420179969167538_);fill-opacity:0.2;}
	.st3{fill-rule:evenodd;clip-rule:evenodd;fill:url(#path-8_00000000199278447359643290000010680837834408454058_);}
	
		.st4{fill-rule:evenodd;clip-rule:evenodd;fill:url(#path-8_00000049901791580405533440000002081451175365257662_);fill-opacity:0.2;}
	.st5{fill-rule:evenodd;clip-rule:evenodd;fill:#98DEDE;}
	
		.st6{fill-rule:evenodd;clip-rule:evenodd;fill:url(#path-11_00000049198671662728430750000011259224644823453104_);fill-opacity:0.2;}
	.st7{fill:#1C528A;}
	.st8{fill:#FFD4C4;}
	
		.st9{fill-rule:evenodd;clip-rule:evenodd;fill:url(#path-14_00000160149651754549087810000000018773624256026510_);fill-opacity:0.2;}
	
		.st10{fill-rule:evenodd;clip-rule:evenodd;fill:url(#path-23_00000145742028451750719750000002361728896629251471_);fill-opacity:0.2;}
	.st11{fill-rule:evenodd;clip-rule:evenodd;fill:url(#path-26_00000158737739527207075890000009926971943717968267_);}
	
		.st12{fill-rule:evenodd;clip-rule:evenodd;fill:url(#path-26_00000076578146402861209470000007803604897953918643_);fill-opacity:0.2;}
	
		.st13{fill-rule:evenodd;clip-rule:evenodd;fill:url(#path-29_00000152962998772288217930000003127978906050790068_);fill-opacity:0.2;}
	
		.st14{fill-rule:evenodd;clip-rule:evenodd;fill:url(#path-32_00000120537397806550310400000003445626606994370980_);fill-opacity:0.2;}
	
		.st15{fill-rule:evenodd;clip-rule:evenodd;fill:url(#path-38_00000104682693823911418800000008704560426492844174_);fill-opacity:0.2;}
	
		.st16{fill-rule:evenodd;clip-rule:evenodd;fill:url(#path-45_00000163776727973072116450000013316409612414276526_);fill-opacity:0.2;}
	
		.st17{fill-rule:evenodd;clip-rule:evenodd;fill:url(#path-54_00000088844465054644295150000013787226124579120815_);fill-opacity:0.2;}
	
		.st18{fill-rule:evenodd;clip-rule:evenodd;fill:url(#path-63_00000152237010940993005540000008403110220476666555_);fill-opacity:0.2;}
	
		.st19{fill-rule:evenodd;clip-rule:evenodd;fill:url(#path-72_00000158019632310689506360000007113308131440424098_);fill-opacity:0.2;}
	
		.st20{fill-rule:evenodd;clip-rule:evenodd;fill:url(#path-75_00000162344514766388592060000014503276174694737578_);fill-opacity:0.2;}
	.st21{fill-rule:evenodd;clip-rule:evenodd;fill:url(#path-81_00000139275872230087324040000008649483723469212325_);}
	
		.st22{fill-rule:evenodd;clip-rule:evenodd;fill:url(#path-81_00000145029262688988279490000015663607870713274042_);fill-opacity:0.2;}
	
		.st23{fill-rule:evenodd;clip-rule:evenodd;fill:url(#path-94_00000091009045182114776170000013155072261330484413_);fill-opacity:0.2;}
	.st24{fill-rule:evenodd;clip-rule:evenodd;fill:url(#path-100_00000166661877070194375540000002647892782455968660_);}
	
		.st25{fill-rule:evenodd;clip-rule:evenodd;fill:url(#path-100_00000067229719275941831410000004706648423909805743_);fill-opacity:0.2;}
	.st26{fill-rule:evenodd;clip-rule:evenodd;fill:url(#path-109_00000074412261892445315490000004959209253029662395_);}
	
		.st27{fill-rule:evenodd;clip-rule:evenodd;fill:url(#path-109_00000133511934860346894470000004294046475501615037_);fill-opacity:0.2;}
	.st28{fill-rule:evenodd;clip-rule:evenodd;fill:url(#path-112_00000095334701024573718700000010204689072081550505_);}
	
		.st29{fill-rule:evenodd;clip-rule:evenodd;fill:url(#path-112_00000063592758451043015980000000168127468912287148_);fill-opacity:0.2;}
	
		.st30{fill-rule:evenodd;clip-rule:evenodd;fill:url(#path-115_00000013171337998988388060000015035871131574578818_);fill-opacity:0.2;}
	.st31{fill-rule:evenodd;clip-rule:evenodd;fill:url(#path-121_00000013178602012370500010000008630617877199289783_);}
	
		.st32{fill-rule:evenodd;clip-rule:evenodd;fill:url(#path-121_00000080897019002184436250000016625738224334440862_);fill-opacity:0.2;}
	
		.st33{fill-rule:evenodd;clip-rule:evenodd;fill:url(#path-130_00000147194034209517493140000000520548202407640489_);fill-opacity:0.2;}
	
		.st34{fill-rule:evenodd;clip-rule:evenodd;fill:url(#path-136_00000034770935550428265950000000025919939269719978_);fill-opacity:0.2;}
	
		.st35{fill-rule:evenodd;clip-rule:evenodd;fill:url(#path-142_00000062910817937535737220000012117725407199148178_);fill-opacity:0.2;}
	
		.st36{fill-rule:evenodd;clip-rule:evenodd;fill:url(#path-145_00000018922877570441548880000008343298392600007861_);fill-opacity:0.2;}
	.st37{fill-rule:evenodd;clip-rule:evenodd;fill:url(#path-151_00000020358015041688818960000016928089089080821931_);}
	
		.st38{fill-rule:evenodd;clip-rule:evenodd;fill:url(#path-151_00000120558214607213850860000017252304841589221793_);fill-opacity:0.2;}
	.st39{fill-rule:evenodd;clip-rule:evenodd;fill:url(#path-154_00000132051035758978971870000004782586833535445132_);}
	
		.st40{fill-rule:evenodd;clip-rule:evenodd;fill:url(#path-154_00000085968921261045935740000015397441293351213198_);fill-opacity:0.2;}
	.st41{fill:#BF0000;}
	.st42{font-family:'BebasNeue-Regular';}
	.st43{font-size:116px;}
</style>
<pattern  y="600.5" width="258" height="258" patternUnits="userSpaceOnUse" id="pattern-101" viewBox="0 -600 258 258" style="overflow:visible;">
	<g>
		<rect y="-600" class="st0" width="258" height="258"/>
		<g>
			
				<image style="overflow:visible;enable-background:new    ;" width="258" height="258" id="image-102_00000051361685710679141250000013179996161839666327_" xlink:href="10D4897652DEEC2D.png"  transform="matrix(1 0 0 -1 58 0)">
			</image>
		</g>
	</g>
</pattern>
<pattern  y="600.5" width="258" height="258" patternUnits="userSpaceOnUse" id="pattern-110" viewBox="542 -800 258 258" style="overflow:visible;">
	<g>
		<rect x="542" y="-800" class="st0" width="258" height="258"/>
		<g>
			
				<image style="overflow:visible;enable-background:new    ;" width="258" height="258" id="image-111_00000065767022071242379830000010392356762997863552_" xlink:href="10D4897652DEEC2F.png"  transform="matrix(1 0 0 -1 0 0)">
			</image>
		</g>
	</g>
</pattern>
<pattern  y="600.5" width="258" height="258" patternUnits="userSpaceOnUse" id="pattern-113" viewBox="942 -800 258 258" style="overflow:visible;">
	<g>
		<rect x="942" y="-800" class="st0" width="258" height="258"/>
		<g>
			
				<image style="overflow:visible;enable-background:new    ;" width="258" height="258" id="image-114_00000068676447947690534790000012213306691654744979_" xlink:href="10D4897652DEEC2A.png"  transform="matrix(1 0 0 -1 0 0)">
			</image>
		</g>
	</g>
</pattern>
<pattern  y="600.5" width="258" height="258" patternUnits="userSpaceOnUse" id="pattern-116" viewBox="0 -800 258 258" style="overflow:visible;">
	<g>
		<rect y="-800" class="st0" width="258" height="258"/>
		<g>
			
				<image style="overflow:visible;enable-background:new    ;" width="258" height="258" id="image-117_00000096770492230601232970000017019586956343477162_" xlink:href="10D4897652DEEC2B.png"  transform="matrix(1 0 0 -1 58 0)">
			</image>
		</g>
	</g>
</pattern>
<pattern  y="600.5" width="258" height="258" patternUnits="userSpaceOnUse" id="pattern-12" viewBox="143 -1000 258 258" style="overflow:visible;">
	<g>
		<rect x="143" y="-1000" class="st0" width="258" height="258"/>
		<g>
			
				<image style="overflow:visible;enable-background:new    ;" width="258" height="258" id="image-13_00000029767661247033886210000017659707113362502287_" xlink:href="10D4897652DEEC35.png"  transform="matrix(1 0 0 -1 0 0)">
			</image>
		</g>
	</g>
</pattern>
<pattern  y="600.5" width="258" height="258" patternUnits="userSpaceOnUse" id="pattern-122" viewBox="392 -850 258 258" style="overflow:visible;">
	<g>
		<rect x="392" y="-850" class="st0" width="258" height="258"/>
		<g>
			
				<image style="overflow:visible;enable-background:new    ;" width="258" height="258" id="image-123_00000176739201077359202030000003872575111120413326_" xlink:href="10D4897652DEEC37.png"  transform="matrix(1 0 0 -1 0 0)">
			</image>
		</g>
	</g>
</pattern>
<pattern  y="600.5" width="258" height="258" patternUnits="userSpaceOnUse" id="pattern-131" viewBox="0 -550 258 258" style="overflow:visible;">
	<g>
		<rect y="-550" class="st0" width="258" height="258"/>
		<g>
			
				<image style="overflow:visible;enable-background:new    ;" width="258" height="258" id="image-132_00000090279477188552811660000018219632116046904495_" xlink:href="10D4897652DEEC3A.png"  transform="matrix(1 0 0 -1 208 0)">
			</image>
		</g>
	</g>
</pattern>
<pattern  y="600.5" width="258" height="258" patternUnits="userSpaceOnUse" id="pattern-137" viewBox="1192 -1050 258 258" style="overflow:visible;">
	<g>
		<rect x="1192" y="-1050" class="st0" width="258" height="258"/>
		<g>
			
				<image style="overflow:visible;enable-background:new    ;" width="258" height="258" id="image-138_00000176015827863579262450000001438892364404574355_" xlink:href="10D4897652DEEC3B.png"  transform="matrix(1 0 0 -1 0 0)">
			</image>
		</g>
	</g>
</pattern>
<pattern  y="600.5" width="258" height="258" patternUnits="userSpaceOnUse" id="pattern-143" viewBox="592 -850 258 258" style="overflow:visible;">
	<g>
		<rect x="592" y="-850" class="st0" width="258" height="258"/>
		<g>
			
				<image style="overflow:visible;enable-background:new    ;" width="258" height="258" id="image-144_00000136397074193507055470000016860151585579485849_" xlink:href="10D4897652DEEC3D.png"  transform="matrix(1 0 0 -1 0 0)">
			</image>
		</g>
	</g>
</pattern>
<pattern  y="600.5" width="258" height="258" patternUnits="userSpaceOnUse" id="pattern-146" viewBox="0 -750 258 258" style="overflow:visible;">
	<g>
		<rect y="-750" class="st0" width="258" height="258"/>
		<g>
			
				<image style="overflow:visible;enable-background:new    ;" width="258" height="258" id="image-147_00000043451562417217576990000014209245034959267767_" xlink:href="6EB7DE19FA382286.png"  transform="matrix(1 0 0 -1 208 0)">
			</image>
		</g>
	</g>
</pattern>
<pattern  y="600.5" width="258" height="258" patternUnits="userSpaceOnUse" id="pattern-15" viewBox="543 -1000 258 258" style="overflow:visible;">
	<g>
		<rect x="543" y="-1000" class="st0" width="258" height="258"/>
		<g>
			
				<image style="overflow:visible;enable-background:new    ;" width="258" height="258" id="image-16_00000167356703509444495720000008313998490126049950_" xlink:href="6EB7DE19FA382281.png"  transform="matrix(1 0 0 -1 0 0)">
			</image>
		</g>
	</g>
</pattern>
<pattern  y="600.5" width="258" height="258" patternUnits="userSpaceOnUse" id="pattern-152" viewBox="992 -1050 258 258" style="overflow:visible;">
	<g>
		<rect x="992" y="-1050" class="st0" width="258" height="258"/>
		<g>
			
				<image style="overflow:visible;enable-background:new    ;" width="258" height="258" id="image-153_00000159468077938329137450000009908061499733235845_" xlink:href="6EB7DE19FA382282.png"  transform="matrix(1 0 0 -1 0 0)">
			</image>
		</g>
	</g>
</pattern>
<pattern  y="600.5" width="258" height="258" patternUnits="userSpaceOnUse" id="pattern-155" viewBox="192 -1050 258 258" style="overflow:visible;">
	<g>
		<rect x="192" y="-1050" class="st0" width="258" height="258"/>
		<g>
			
				<image style="overflow:visible;enable-background:new    ;" width="258" height="258" id="image-156_00000115491030935614319970000016998212957639716743_" xlink:href="6EB7DE19FA382280.png"  transform="matrix(1 0 0 -1 0 0)">
			</image>
		</g>
	</g>
</pattern>
<pattern  y="600.5" width="258" height="258" patternUnits="userSpaceOnUse" id="pattern-24" viewBox="542 -600 258 258" style="overflow:visible;">
	<g>
		<rect x="542" y="-600" class="st0" width="258" height="258"/>
		<g>
			
				<image style="overflow:visible;enable-background:new    ;" width="258" height="258" id="image-25_00000066482484294164347970000014633510744419087796_" xlink:href="6EB7DE19FA38229E.png"  transform="matrix(1 0 0 -1 0 0)">
			</image>
		</g>
	</g>
</pattern>
<pattern  y="600.5" width="258" height="258" patternUnits="userSpaceOnUse" id="pattern-27" viewBox="593 -650 258 258" style="overflow:visible;">
	<g>
		<rect x="593" y="-650" class="st0" width="258" height="258"/>
		<g>
			
				<image style="overflow:visible;enable-background:new    ;" width="258" height="258" id="image-28_00000175310891258238792950000000159961684825170608_" xlink:href="6EB7DE19FA382283.png"  transform="matrix(1 0 0 -1 0 0)">
			</image>
		</g>
	</g>
</pattern>
<pattern  y="600.5" width="258" height="258" patternUnits="userSpaceOnUse" id="pattern-30" viewBox="1142 -800 258 258" style="overflow:visible;">
	<g>
		<rect x="1142" y="-800" class="st0" width="258" height="258"/>
		<g>
			
				<image style="overflow:visible;enable-background:new    ;" width="258" height="258" id="image-31_00000084525836890997141500000016650317946601261966_" xlink:href="6EB7DE19FA382287.png"  transform="matrix(1 0 0 -1 0 0)">
			</image>
		</g>
	</g>
</pattern>
<pattern  y="600.5" width="258" height="258" patternUnits="userSpaceOnUse" id="pattern-33" viewBox="793 -650 258 258" style="overflow:visible;">
	<g>
		<rect x="793" y="-650" class="st0" width="258" height="258"/>
		<g>
			
				<image style="overflow:visible;enable-background:new    ;" width="258" height="258" id="image-34_00000134239879843574087140000006583647386569888399_" xlink:href="6EB7DE19FA382285.png"  transform="matrix(1 0 0 -1 0 0)">
			</image>
		</g>
	</g>
</pattern>
<pattern  y="600.5" width="258" height="258" patternUnits="userSpaceOnUse" id="pattern-39" viewBox="794 -1050 258 258" style="overflow:visible;">
	<g>
		<rect x="794" y="-1050" class="st0" width="258" height="258"/>
		<g>
			
				<image style="overflow:visible;enable-background:new    ;" width="258" height="258" id="image-40_00000104683375446061500860000014254175965422164883_" xlink:href="6EB7DE19FA38228C.png"  transform="matrix(1 0 0 -1 0 0)">
			</image>
		</g>
	</g>
</pattern>
<pattern  y="600.5" width="258" height="258" patternUnits="userSpaceOnUse" id="pattern-46" viewBox="1042 -500 258 258" style="overflow:visible;">
	<g>
		<rect x="1042" y="-500" class="st0" width="258" height="258"/>
		<g>
			
				<image style="overflow:visible;enable-background:new    ;" width="258" height="258" id="image-47_00000129895982158700782090000012767244022620130975_" xlink:href="6EB7DE19FA38228D.png"  transform="matrix(1 0 0 -1 0 0)">
			</image>
		</g>
	</g>
</pattern>
<pattern  y="600.5" width="258" height="258" patternUnits="userSpaceOnUse" id="pattern-5" viewBox="43 -1000 258 258" style="overflow:visible;">
	<g>
		<rect x="43" y="-1000" class="st0" width="258" height="258"/>
		<g>
			
				<image style="overflow:visible;enable-background:new    ;" width="258" height="258" id="image-6_00000112593823266586328960000016892261285716458934_" xlink:href="6EB7DE19FA3822A5.png"  transform="matrix(1 0 0 -1 0 0)">
			</image>
		</g>
	</g>
</pattern>
<pattern  y="600.5" width="258" height="258" patternUnits="userSpaceOnUse" id="pattern-55" viewBox="142 -600 258 258" style="overflow:visible;">
	<g>
		<rect x="142" y="-600" class="st0" width="258" height="258"/>
		<g>
			
				<image style="overflow:visible;enable-background:new    ;" width="258" height="258" id="image-56_00000005255798767873028460000017328031270070153892_" xlink:href="6EB7DE19FA3822A7.png"  transform="matrix(1 0 0 -1 0 0)">
			</image>
		</g>
	</g>
</pattern>
<pattern  y="600.5" width="258" height="258" patternUnits="userSpaceOnUse" id="pattern-64" viewBox="143 -600 258 258" style="overflow:visible;">
	<g>
		<rect x="143" y="-600" class="st0" width="258" height="258"/>
		<g>
			
				<image style="overflow:visible;enable-background:new    ;" width="258" height="258" id="image-65_00000180341909254201255820000012910811393972766398_" xlink:href="6EB7DE19FA3822A4.png"  transform="matrix(1 0 0 -1 0 0)">
			</image>
		</g>
	</g>
</pattern>
<pattern  y="600.5" width="258" height="258" patternUnits="userSpaceOnUse" id="pattern-73" viewBox="742 -800 258 258" style="overflow:visible;">
	<g>
		<rect x="742" y="-800" class="st0" width="258" height="258"/>
		<g>
			
				<image style="overflow:visible;enable-background:new    ;" width="258" height="258" id="image-74_00000011733414101279540580000006386990077161133212_" xlink:href="6EB7DE19FA3822A3.png"  transform="matrix(1 0 0 -1 0 0)">
			</image>
		</g>
	</g>
</pattern>
<pattern  y="600.5" width="258" height="258" patternUnits="userSpaceOnUse" id="pattern-76" viewBox="942 -1000 258 258" style="overflow:visible;">
	<g>
		<rect x="942" y="-1000" class="st0" width="258" height="258"/>
		<g>
			
				<image style="overflow:visible;enable-background:new    ;" width="258" height="258" id="image-77_00000060721825048823769580000003904768531525064338_" xlink:href="6EB7DE19FA3822AD.png"  transform="matrix(1 0 0 -1 0 0)">
			</image>
		</g>
	</g>
</pattern>
<pattern  y="600.5" width="258" height="258" patternUnits="userSpaceOnUse" id="pattern-82" viewBox="342 -1000 258 258" style="overflow:visible;">
	<g>
		<rect x="342" y="-1000" class="st0" width="258" height="258"/>
		<g>
			
				<image style="overflow:visible;enable-background:new    ;" width="258" height="258" id="image-83_00000030447078004511518780000014246799990452200383_" xlink:href="6EB7DE19FA3822AF.png"  transform="matrix(1 0 0 -1 0 0)">
			</image>
		</g>
	</g>
</pattern>
<pattern  y="600.5" width="258" height="258" patternUnits="userSpaceOnUse" id="pattern-9" viewBox="0 -1000 258 258" style="overflow:visible;">
	<g>
		<rect y="-1000" class="st0" width="258" height="258"/>
		<g>
			
				<image style="overflow:visible;enable-background:new    ;" width="258" height="258" id="image-10_00000037676046494206635650000013327306399658463631_" xlink:href="6EB7DE19FA3822AC.png"  transform="matrix(1 0 0 -1 157 0)">
			</image>
		</g>
	</g>
</pattern>
<pattern  y="600.5" width="258" height="258" patternUnits="userSpaceOnUse" id="pattern-95" viewBox="0 -800 258 258" style="overflow:visible;">
	<g>
		<rect y="-800" class="st0" width="258" height="258"/>
		<g>
			
				<image style="overflow:visible;enable-background:new    ;" width="258" height="258" id="image-96_00000060724076702783773940000015909198994225470614_" xlink:href="6EB7DE19FA3822A6.png"  transform="matrix(1 0 0 -1 258 0)">
			</image>
		</g>
	</g>
</pattern>
<g id="Layer_2">
	<rect x="1" y="0.5" width="1599" height="600"/>
</g>
<g id="Layer_1">
	<desc>Created with Sketch.</desc>
	<g id="Patterns">
		<g id="Thur-">
			<g id="Thur">
				<g id="Shape_00000177443196421062350520000003555168732884200863_">
					<g>
						<polygon id="path-4" class="st1" points="501,500.5 401,600.5 301,500.5 401,400.5 						"/>
					</g>
					<g>
						
							<pattern  id="path-4_00000087387874787289587350000013700860699142058894_" xlink:href="#pattern-5" patternTransform="matrix(1 0 0 -1 -141 -20368)">
						</pattern>
						
							<polygon id="path-4_00000157278236667937304560000011041735816027324607_" style="fill-rule:evenodd;clip-rule:evenodd;fill:url(#path-4_00000087387874787289587350000013700860699142058894_);fill-opacity:0.2;" points="
							501,500.5 401,600.5 301,500.5 401,400.5 						"/>
					</g>
				</g>
				<g id="Shape_00000153705348331507609820000001930863161488608699_">
					<g>
						
							<linearGradient id="path-8_00000076563934300162504600000008341375878164781208_" gradientUnits="userSpaceOnUse" x1="696.5" y1="103.0102" x2="697.4924" y2="102.0177" gradientTransform="matrix(200 0 0 -200 -139199 21002.5488)">
							<stop  offset="0" style="stop-color:#FEC55F"/>
							<stop  offset="1" style="stop-color:#FCD06D"/>
						</linearGradient>
						
							<polygon id="path-8" style="fill-rule:evenodd;clip-rule:evenodd;fill:url(#path-8_00000076563934300162504600000008341375878164781208_);" points="
							301,500.5 201,600.5 101,500.5 201,400.5 						"/>
					</g>
					<g>
						
							<pattern  id="path-8_00000011717960122277718120000014578803010416486564_" xlink:href="#pattern-9" patternTransform="matrix(1 0 0 -1 -341 -20368)">
						</pattern>
						
							<polygon id="path-8_00000145060256276690464370000007657099445005257608_" style="fill-rule:evenodd;clip-rule:evenodd;fill:url(#path-8_00000011717960122277718120000014578803010416486564_);fill-opacity:0.2;" points="
							301,500.5 201,600.5 101,500.5 201,400.5 						"/>
					</g>
				</g>
				<g id="Shape_00000181045193420063815330000013883016330784623503_">
					<g>
						<polygon id="path-11" class="st5" points="401,600.5 401,400.5 601,400.5 						"/>
					</g>
					<g>
						
							<pattern  id="path-11_00000157304541164153106490000014585288815452155834_" xlink:href="#pattern-12" patternTransform="matrix(1 0 0 -1 -41 -20368)">
						</pattern>
						
							<polygon id="path-11_00000046301461278160330150000015888309246162904466_" style="fill-rule:evenodd;clip-rule:evenodd;fill:url(#path-11_00000157304541164153106490000014585288815452155834_);fill-opacity:0.2;" points="
							401,600.5 401,400.5 601,400.5 						"/>
					</g>
				</g>
				<polygon id="Shape_00000130610004160068577750000001383114185556477081_" class="st7" points="1001,400.5 1201,400.5 
					1201,600.5 1001,600.5 				"/>
				<polygon id="Shape_00000072982757275460014460000016554636427058958013_" class="st8" points="801,400.5 1001,400.5 1001,600.5 
									"/>
				<g id="Shape_00000154395143414623102220000013380080424053724075_">
					<g>
						<polygon id="path-14" class="st1" points="1001,600.5 801,600.5 801,400.5 						"/>
					</g>
					<g>
						
							<pattern  id="path-14_00000003800798855778068770000008852430855436333987_" xlink:href="#pattern-15" patternTransform="matrix(1 0 0 -1 359 -20368)">
						</pattern>
						
							<polygon id="path-14_00000145028676595987267820000004542376694310025904_" style="fill-rule:evenodd;clip-rule:evenodd;fill:url(#path-14_00000003800798855778068770000008852430855436333987_);fill-opacity:0.2;" points="
							1001,600.5 801,600.5 801,400.5 						"/>
					</g>
				</g>
				<polygon id="Shape_00000119083973872663788790000002838392958709138058_" class="st8" points="1,400.5 201,400.5 201,600.5 				
					"/>
				<g id="Shape_00000016063652795685516590000015152539564916198049_">
					<g>
						<path id="path-23" class="st1" d="M900,0.5c55.2,0,100,44.8,100,100v100H900c-55.2,0-100-44.8-100-100S844.8,0.5,900,0.5z"/>
					</g>
					<g>
						
							<pattern  id="path-23_00000064326025835979477880000015652640440409043643_" xlink:href="#pattern-24" patternTransform="matrix(1 0 0 -1 358 -19168)">
						</pattern>
						
							<path id="path-23_00000062914411398422861160000002961029308266712719_" style="fill-rule:evenodd;clip-rule:evenodd;fill:url(#path-23_00000064326025835979477880000015652640440409043643_);fill-opacity:0.2;" d="
							M900,0.5c55.2,0,100,44.8,100,100v100H900c-55.2,0-100-44.8-100-100S844.8,0.5,900,0.5z"/>
					</g>
				</g>
				<g id="Shape_00000051379522987841946280000017042126612622317208_">
					<g>
						
							<linearGradient id="path-26_00000108292591267503540740000015196817269288332182_" gradientUnits="userSpaceOnUse" x1="693" y1="105.5102" x2="693.9924" y2="104.5177" gradientTransform="matrix(100 0 0 -100 -68449 10601.5293)">
							<stop  offset="0" style="stop-color:#FEC55F"/>
							<stop  offset="1" style="stop-color:#FCD06D"/>
						</linearGradient>
						
							<path id="path-26" style="fill-rule:evenodd;clip-rule:evenodd;fill:url(#path-26_00000108292591267503540740000015196817269288332182_);" d="
							M901,50.5c27.6,0,50,22.4,50,50v50h-50c-27.6,0-50-22.4-50-50S873.4,50.5,901,50.5z"/>
					</g>
					<g>
						
							<pattern  id="path-26_00000061437688445757562410000013455078177853528741_" xlink:href="#pattern-27" patternTransform="matrix(1 0 0 -1 409 -19318)">
						</pattern>
						
							<path id="path-26_00000030478121367279039240000009618419908339715719_" style="fill-rule:evenodd;clip-rule:evenodd;fill:url(#path-26_00000061437688445757562410000013455078177853528741_);fill-opacity:0.2;" d="
							M901,50.5c27.6,0,50,22.4,50,50v50h-50c-27.6,0-50-22.4-50-50S873.4,50.5,901,50.5z"/>
					</g>
				</g>
				
					<g id="Shape_00000172438102773470533030000000565130083729151386_" transform="translate(1500.000000, 900.000000) scale(-1, 1) rotate(-270.000000) translate(-1500.000000, -900.000000) ">
					<g>
						<path id="path-29" class="st1" d="M900.5,800c55.2,0,100,44.8,100,100v100h-100c-55.2,0-100-44.8-100-100S845.3,800,900.5,800
							z"/>
					</g>
					<g>
						
							<pattern  id="path-29_00000056413353009780397730000009133634123516844420_" xlink:href="#pattern-30" patternTransform="matrix(1.836970e-16 1 -1 1.836970e-16 -14884 -3926)">
						</pattern>
						
							<path id="path-29_00000109731277175054016310000004929590596279305859_" style="fill-rule:evenodd;clip-rule:evenodd;fill:url(#path-29_00000056413353009780397730000009133634123516844420_);fill-opacity:0.2;" d="
							M900.5,800c55.2,0,100,44.8,100,100v100h-100c-55.2,0-100-44.8-100-100S845.3,800,900.5,800z"/>
					</g>
				</g>
				<path id="Shape_00000013900732778464644890000004577486368409965450_" class="st7" d="M1200,100.5c0,55.2-44.8,100-100,100h-100
					v-100c0-55.2,44.8-100,100-100S1200,45.3,1200,100.5z"/>
				<g id="Shape_00000084515567357215370820000001587298547711280021_">
					<g>
						<path id="path-32" class="st1" d="M1151,100.5c0,27.6-22.4,50-50,50h-50v-50c0-27.6,22.4-50,50-50S1151,72.9,1151,100.5z"/>
					</g>
					<g>
						
							<pattern  id="path-32_00000041257264903315046880000012679509090834957744_" xlink:href="#pattern-33" patternTransform="matrix(1 0 0 -1 609 -19318)">
						</pattern>
						
							<path id="path-32_00000066503180904088826450000005774887250642144691_" style="fill-rule:evenodd;clip-rule:evenodd;fill:url(#path-32_00000041257264903315046880000012679509090834957744_);fill-opacity:0.2;" d="
							M1151,100.5c0,27.6-22.4,50-50,50h-50v-50c0-27.6,22.4-50,50-50S1151,72.9,1151,100.5z"/>
					</g>
				</g>
				<g id="Shape_00000043423262665921406520000010831188560671792012_">
					<g>
						<path id="path-38" class="st5" d="M1152,500.5c0,27.6-22.4,50-50,50h-50v-50c0-27.6,22.4-50,50-50S1152,472.9,1152,500.5z"/>
					</g>
					<g>
						
							<pattern  id="path-38_00000059990193260467578360000008350211642929725096_" xlink:href="#pattern-39" patternTransform="matrix(1 0 0 -1 610 -20518)">
						</pattern>
						
							<path id="path-38_00000167391494539051434480000001225554661742005154_" style="fill-rule:evenodd;clip-rule:evenodd;fill:url(#path-38_00000059990193260467578360000008350211642929725096_);fill-opacity:0.2;" d="
							M1152,500.5c0,27.6-22.4,50-50,50h-50v-50c0-27.6,22.4-50,50-50S1152,472.9,1152,500.5z"/>
					</g>
				</g>
				<path id="Shape_00000174581021239427853580000014975991585059014299_" class="st7" d="M1500,600.5c55.2,0,100-44.8,100-100v-100
					h-100c-55.2,0-100,44.8-100,100S1444.8,600.5,1500,600.5z"/>
				<path id="Shape_00000093150686464120946860000004383353164457737111_" class="st7" d="M800,200.5c0,110.5-89.5,200-200,200V0.5
					C710.5,0.5,800,90.1,800,200.5z"/>
				
					<g id="Shape_00000007394120695871814740000004269120169365340087_" transform="translate(1400.000000, 700.000000) scale(-1, 1) rotate(-270.000000) translate(-1400.000000, -700.000000) ">
					<g>
						<path id="path-45" class="st1" d="M900.5,700c0,110.5-89.5,200-200,200V500C811,500,900.5,589.5,900.5,700z"/>
					</g>
					<g>
						
							<pattern  id="path-45_00000030475818389780075800000003540311376714585239_" xlink:href="#pattern-46" patternTransform="matrix(1.836970e-16 1 -1 1.836970e-16 -14884 -3326)">
						</pattern>
						
							<path id="path-45_00000169517876770054669340000015068005134312926126_" style="fill-rule:evenodd;clip-rule:evenodd;fill:url(#path-45_00000030475818389780075800000003540311376714585239_);fill-opacity:0.2;" d="
							M900.5,700c0,110.5-89.5,200-200,200V500C811,500,900.5,589.5,900.5,700z"/>
					</g>
				</g>
				<g id="Shape_00000108293944251299251080000014893588248629994916_">
					<g>
						<polygon id="path-54" class="st5" points="400,0.5 600,0.5 600,200.5 400,200.5 						"/>
					</g>
					<g>
						
							<pattern  id="path-54_00000053507850114741837660000015803144477320184479_" xlink:href="#pattern-55" patternTransform="matrix(1 0 0 -1 -42 -19168)">
						</pattern>
						
							<polygon id="path-54_00000177467773520429557260000005773674333378255746_" style="fill-rule:evenodd;clip-rule:evenodd;fill:url(#path-54_00000053507850114741837660000015803144477320184479_);fill-opacity:0.2;" points="
							400,0.5 600,0.5 600,200.5 400,200.5 						"/>
					</g>
				</g>
				<g id="Shape_00000047758508441371538760000000713561360097619897_">
					<g>
						<polygon id="path-63" class="st1" points="501,0.5 601,100.5 501,200.5 401,100.5 						"/>
					</g>
					<g>
						
							<pattern  id="path-63_00000062913423319140448500000008648570734739168950_" xlink:href="#pattern-64" patternTransform="matrix(1 0 0 -1 -41 -19168)">
						</pattern>
						
							<polygon id="path-63_00000005952654589337134330000015533789833374996149_" style="fill-rule:evenodd;clip-rule:evenodd;fill:url(#path-63_00000062913423319140448500000008648570734739168950_);fill-opacity:0.2;" points="
							501,0.5 601,100.5 501,200.5 401,100.5 						"/>
					</g>
				</g>
				<polygon id="Shape_00000044154608831932738120000016848757789531125177_" class="st8" points="100,0 200,50.3 100,100.5 0,50.3 
									"/>
				<polygon id="Shape_00000123403275497094928640000007823351790074655111_" class="st8" points="1501,250.5 1551,300.5 
					1501,350.5 1451,300.5 				"/>
				<polygon id="Shape_00000026154388189809960350000002059975870273064333_" class="st7" points="100,100.5 200,200.5 100,300.5 
					0,200.5 				"/>
				<g id="Shape_00000038406405380437519860000005958625813093221291_">
					<g>
						<path id="path-72" class="st1" d="M1200,300.5c0,55.2-44.8,100-100,100h-100v-200h100C1155.2,200.5,1200,245.3,1200,300.5z"/>
					</g>
					<g>
						
							<pattern  id="path-72_00000065032499478993622410000008038613062063859090_" xlink:href="#pattern-73" patternTransform="matrix(1 0 0 -1 558 -19768)">
						</pattern>
						
							<path id="path-72_00000013164518181578115330000002462553505638949515_" style="fill-rule:evenodd;clip-rule:evenodd;fill:url(#path-72_00000065032499478993622410000008038613062063859090_);fill-opacity:0.2;" d="
							M1200,300.5c0,55.2-44.8,100-100,100h-100v-200h100C1155.2,200.5,1200,245.3,1200,300.5z"/>
					</g>
				</g>
				
					<g id="Shape_00000129899144416993716270000000594854603615283084_" transform="translate(1300.000000, 1100.000000) scale(-1, 1) rotate(-270.000000) translate(-1300.000000, -1100.000000) ">
					<g>
						<path id="path-75" class="st1" d="M800.5,1100c0,55.2-44.8,100-100,100h-100v-200h100C755.7,1000,800.5,1044.8,800.5,1100z"/>
					</g>
					<g>
						
							<pattern  id="path-75_00000120529075035517182020000010112304186124089269_" xlink:href="#pattern-76" patternTransform="matrix(1.836970e-16 1 -1 1.836970e-16 -15484 -4126)">
						</pattern>
						
							<path id="path-75_00000173162171485590160350000003313023833141562767_" style="fill-rule:evenodd;clip-rule:evenodd;fill:url(#path-75_00000120529075035517182020000010112304186124089269_);fill-opacity:0.2;" d="
							M800.5,1100c0,55.2-44.8,100-100,100h-100v-200h100C755.7,1000,800.5,1044.8,800.5,1100z"/>
					</g>
				</g>
				
					<g id="Shape_00000162311037820160237110000009887252969163695016_" transform="translate(700.000000, 1100.000000) rotate(-180.000000) translate(-700.000000, -1100.000000) ">
					<g>
						
							<linearGradient id="path-81_00000006703440625181017640000003391763623646055345_" gradientUnits="userSpaceOnUse" x1="696.5" y1="2101.9897" x2="697.4924" y2="2102.9822" gradientTransform="matrix(-200 0 0 200 139900 -418798.4688)">
							<stop  offset="0" style="stop-color:#FEC55F"/>
							<stop  offset="1" style="stop-color:#FCD06D"/>
						</linearGradient>
						
							<path id="path-81" style="fill-rule:evenodd;clip-rule:evenodd;fill:url(#path-81_00000006703440625181017640000003391763623646055345_);" d="
							M700,1599.5c55.2,0,100,44.8,100,100v100H700c-55.2,0-100-44.8-100-100S644.8,1599.5,700,1599.5z"/>
					</g>
					<g>
						
							<pattern  id="path-81_00000090291522428355703270000015796903231424422324_" xlink:href="#pattern-82" patternTransform="matrix(-1 0 0 1 -13226 -1500)">
						</pattern>
						
							<path id="path-81_00000062151106986207913060000003211157531293182881_" style="fill-rule:evenodd;clip-rule:evenodd;fill:url(#path-81_00000090291522428355703270000015796903231424422324_);fill-opacity:0.2;" d="
							M700,1599.5c55.2,0,100,44.8,100,100v100H700c-55.2,0-100-44.8-100-100S644.8,1599.5,700,1599.5z"/>
					</g>
				</g>
				<g id="Shape_00000146476071542166367890000017497908585057087377_">
					<g>
						<polygon id="path-94" class="st5" points="200,400.5 0,400.5 0,200.5 						"/>
					</g>
					<g>
						
							<pattern  id="path-94_00000030444917627644757570000015624944314990661779_" xlink:href="#pattern-95" patternTransform="matrix(1 0 0 -1 -442 -19768)">
						</pattern>
						
							<polygon id="path-94_00000041986094777666628630000013144695903104287148_" style="fill-rule:evenodd;clip-rule:evenodd;fill:url(#path-94_00000030444917627644757570000015624944314990661779_);fill-opacity:0.2;" points="
							200,400.5 0,400.5 0,200.5 						"/>
					</g>
				</g>
				<g id="Shape_00000160909995709047582860000003505908150889220773_">
					<g>
						
							<linearGradient id="path-100_00000150102391519012529110000003636815739921909392_" gradientUnits="userSpaceOnUse" x1="696.5" y1="103.0102" x2="697.4924" y2="102.0177" gradientTransform="matrix(200 0 0 -200 -139100 20602.5488)">
							<stop  offset="0" style="stop-color:#FEC55F"/>
							<stop  offset="1" style="stop-color:#FCD06D"/>
						</linearGradient>
						
							<polygon id="path-100" style="fill-rule:evenodd;clip-rule:evenodd;fill:url(#path-100_00000150102391519012529110000003636815739921909392_);" points="
							200,200.5 200,0.5 400,0.5 						"/>
					</g>
					<g>
						
							<pattern  id="path-100_00000021805585218099903070000014184402713875889330_" xlink:href="#pattern-101" patternTransform="matrix(1 0 0 -1 -242 -19168)">
						</pattern>
						
							<polygon id="path-100_00000085237691933406195480000015262496497005798033_" style="fill-rule:evenodd;clip-rule:evenodd;fill:url(#path-100_00000021805585218099903070000014184402713875889330_);fill-opacity:0.2;" points="
							200,200.5 200,0.5 400,0.5 						"/>
					</g>
				</g>
				<polygon id="Shape_00000060010092163949988720000001808052536003833517_" class="st8" points="800,200.5 1000,200.5 1000,400.5 
									"/>
				<polygon id="Shape_00000133527346426552468310000006248562188685293244_" class="st8" points="1200,200.5 1200,400.5 
					1400,400.5 				"/>
				
					<g id="Shape_00000089533281406801048950000005482599171670537129_" transform="translate(900.000000, 900.000000) rotate(-180.000000) translate(-900.000000, -900.000000) ">
					<g>
						
							<linearGradient id="path-109_00000174568525355462190350000002670082871123933118_" gradientUnits="userSpaceOnUse" x1="1096.25" y1="1701.7397" x2="1097.2424" y2="1702.7323" gradientTransform="matrix(-200 0 0 200 220100 -338998.4688)">
							<stop  offset="0" style="stop-color:#FEC55F"/>
							<stop  offset="1" style="stop-color:#FCD06D"/>
						</linearGradient>
						
							<polygon id="path-109" style="fill-rule:evenodd;clip-rule:evenodd;fill:url(#path-109_00000174568525355462190350000002670082871123933118_);" points="
							800,1399.5 1000,1399.5 1000,1599.5 						"/>
					</g>
					<g>
						
							<pattern  id="path-109_00000036972112302911213730000007613676119876711610_" xlink:href="#pattern-110" patternTransform="matrix(-1 0 0 1 -12626 -1300)">
						</pattern>
						
							<polygon id="path-109_00000074442571438928197020000010791928684397215931_" style="fill-rule:evenodd;clip-rule:evenodd;fill:url(#path-109_00000036972112302911213730000007613676119876711610_);fill-opacity:0.2;" points="
							800,1399.5 1000,1399.5 1000,1599.5 						"/>
					</g>
				</g>
				
					<g id="Shape_00000059286383520081133770000001513615187659826586_" transform="translate(1300.000000, 900.000000) scale(-1, 1) rotate(-90.000000) translate(-1300.000000, -900.000000) ">
					<g>
						
							<linearGradient id="path-112_00000000186743598774933870000015370848185998052763_" gradientUnits="userSpaceOnUse" x1="2102.7397" y1="1497.25" x2="2103.7322" y2="1498.2424" gradientTransform="matrix(0 200 -200 0 301299.5 -419797.9688)">
							<stop  offset="0" style="stop-color:#FEC55F"/>
							<stop  offset="1" style="stop-color:#FCD06D"/>
						</linearGradient>
						
							<polygon id="path-112" style="fill-rule:evenodd;clip-rule:evenodd;fill:url(#path-112_00000000186743598774933870000015370848185998052763_);" points="
							1799.5,800 1999.5,800 1999.5,1000 						"/>
					</g>
					<g>
						
							<pattern  id="path-112_00000168079387902810330170000005953982079526634390_" xlink:href="#pattern-113" patternTransform="matrix(-6.123234e-17 -1 1 -6.123234e-17 4616 -17342)">
						</pattern>
						
							<polygon id="path-112_00000116205943847479915980000009012931958330463366_" style="fill-rule:evenodd;clip-rule:evenodd;fill:url(#path-112_00000168079387902810330170000005953982079526634390_);fill-opacity:0.2;" points="
							1799.5,800 1999.5,800 1999.5,1000 						"/>
					</g>
				</g>
				<g id="Shape_00000133498974670245249080000010107638865614157457_">
					<g>
						<path id="path-115" class="st1" d="M400,400.5c-110.5,0-200-89.5-200-200h400C600,311,510.5,400.5,400,400.5z"/>
					</g>
					<g>
						
							<pattern  id="path-115_00000096057310935010447350000008719953376394034844_" xlink:href="#pattern-116" patternTransform="matrix(1 0 0 -1 -242 -19768)">
						</pattern>
						
							<path id="path-115_00000045618243866608292350000012632921194177065124_" style="fill-rule:evenodd;clip-rule:evenodd;fill:url(#path-115_00000096057310935010447350000008719953376394034844_);fill-opacity:0.2;" d="
							M400,400.5c-110.5,0-200-89.5-200-200h400C600,311,510.5,400.5,400,400.5z"/>
					</g>
				</g>
				<g id="Shape_00000070099233178395057560000008089758959499159170_">
					<g>
						
							<linearGradient id="path-121_00000046312397699673144480000004973074351582006955_" gradientUnits="userSpaceOnUse" x1="693" y1="105.5102" x2="693.9924" y2="104.5177" gradientTransform="matrix(100 0 0 -100 -68650 10801.5293)">
							<stop  offset="0" style="stop-color:#FEC55F"/>
							<stop  offset="1" style="stop-color:#FCD06D"/>
						</linearGradient>
						
							<path id="path-121" style="fill-rule:evenodd;clip-rule:evenodd;fill:url(#path-121_00000046312397699673144480000004973074351582006955_);" d="
							M700,250.5c27.6,0,50,22.4,50,50v50h-50c-27.6,0-50-22.4-50-50S672.4,250.5,700,250.5z"/>
					</g>
					<g>
						
							<pattern  id="path-121_00000136396138952367782520000014242183635705088406_" xlink:href="#pattern-122" patternTransform="matrix(1 0 0 -1 208 -19918)">
						</pattern>
						
							<path id="path-121_00000025416221315070084300000003893336727644071331_" style="fill-rule:evenodd;clip-rule:evenodd;fill:url(#path-121_00000136396138952367782520000014242183635705088406_);fill-opacity:0.2;" d="
							M700,250.5c27.6,0,50,22.4,50,50v50h-50c-27.6,0-50-22.4-50-50S672.4,250.5,700,250.5z"/>
					</g>
				</g>
				<g id="Shape_00000022533148283046162730000016290816043574995866_">
					<g>
						<polygon id="path-130" class="st5" points="100,0 150,25.3 100,50.5 50,25.3 						"/>
					</g>
					<g>
						
							<pattern  id="path-130_00000165234720309621982360000001384986143942857375_" xlink:href="#pattern-131" patternTransform="matrix(1 0 0 -1 -392 -19018)">
						</pattern>
						
							<polygon id="path-130_00000013877138910188365190000009317611367691024304_" style="fill-rule:evenodd;clip-rule:evenodd;fill:url(#path-130_00000165234720309621982360000001384986143942857375_);fill-opacity:0.2;" points="
							100,0.5 150,25.5 100,50.5 50,25.5 						"/>
					</g>
				</g>
				<g id="Shape_00000096052118873910517380000010332994076401965970_">
					<g>
						<circle id="path-136" class="st5" cx="1500" cy="500.5" r="50"/>
					</g>
					<g>
						
							<pattern  id="path-136_00000058564352195307861350000013616857147090491064_" xlink:href="#pattern-137" patternTransform="matrix(1 0 0 -1 1008 -20518)">
						</pattern>
						
							<circle id="path-136_00000078024737784841643560000011292521244564512686_" style="fill-rule:evenodd;clip-rule:evenodd;fill:url(#path-136_00000058564352195307861350000013616857147090491064_);fill-opacity:0.2;" cx="1500" cy="500.5" r="50"/>
					</g>
				</g>
				<g id="Shape_00000096033032503628526190000012928195722456854415_">
					<g>
						<circle id="path-142" class="st1" cx="900" cy="300.5" r="50"/>
					</g>
					<g>
						
							<pattern  id="path-142_00000170238537976224728660000013098006630951015319_" xlink:href="#pattern-143" patternTransform="matrix(1 0 0 -1 408 -19918)">
						</pattern>
						
							<circle id="path-142_00000008861745091828221250000003093533309531319426_" style="fill-rule:evenodd;clip-rule:evenodd;fill:url(#path-142_00000170238537976224728660000013098006630951015319_);fill-opacity:0.2;" cx="900" cy="300.5" r="50"/>
					</g>
				</g>
				<g id="Shape_00000058591191862030162810000006518425588051871621_">
					<g>
						<circle id="path-145" class="st5" cx="100" cy="200.5" r="50"/>
					</g>
					<g>
						
							<pattern  id="path-145_00000177458591548451553960000012762650518516784521_" xlink:href="#pattern-146" patternTransform="matrix(1 0 0 -1 -392 -19618)">
						</pattern>
						
							<circle id="path-145_00000057843157457093243950000010530553361944564907_" style="fill-rule:evenodd;clip-rule:evenodd;fill:url(#path-145_00000177458591548451553960000012762650518516784521_);fill-opacity:0.2;" cx="100" cy="200.5" r="50"/>
					</g>
				</g>
				<g id="Shape_00000086668917260603517290000002017104095582892477_">
					<g>
						
							<linearGradient id="path-151_00000089553208818250969120000015469001443197032096_" gradientUnits="userSpaceOnUse" x1="693" y1="105.5102" x2="693.9924" y2="104.5177" gradientTransform="matrix(100 0 0 -100 -68050 11001.5293)">
							<stop  offset="0" style="stop-color:#FEC55F"/>
							<stop  offset="1" style="stop-color:#FCD06D"/>
						</linearGradient>
						
							<polygon id="path-151" style="fill-rule:evenodd;clip-rule:evenodd;fill:url(#path-151_00000089553208818250969120000015469001443197032096_);" points="
							1300,450.5 1350,500.5 1300,550.5 1250,500.5 						"/>
					</g>
					<g>
						
							<pattern  id="path-151_00000014623498877688461920000001217851447453365682_" xlink:href="#pattern-152" patternTransform="matrix(1 0 0 -1 808 -20518)">
						</pattern>
						
							<polygon id="path-151_00000170961950182147003010000011449614969962989993_" style="fill-rule:evenodd;clip-rule:evenodd;fill:url(#path-151_00000014623498877688461920000001217851447453365682_);fill-opacity:0.2;" points="
							1300,450.5 1350,500.5 1300,550.5 1250,500.5 						"/>
					</g>
				</g>
				<g id="Shape_00000150794089154535510040000001245952644713806993_">
					<g>
						
							<linearGradient id="path-154_00000171685151944674660280000015299821396932450745_" gradientUnits="userSpaceOnUse" x1="693" y1="105.5102" x2="693.9924" y2="104.5177" gradientTransform="matrix(100 0 0 -100 -68850 11001.5293)">
							<stop  offset="0" style="stop-color:#FEC55F"/>
							<stop  offset="1" style="stop-color:#FCD06D"/>
						</linearGradient>
						
							<polygon id="path-154" style="fill-rule:evenodd;clip-rule:evenodd;fill:url(#path-154_00000171685151944674660280000015299821396932450745_);" points="
							500,450.5 550,500.5 500,550.5 450,500.5 						"/>
					</g>
					<g>
						
							<pattern  id="path-154_00000037678495303609006380000016242194734021531527_" xlink:href="#pattern-155" patternTransform="matrix(1 0 0 -1 8 -20518)">
						</pattern>
						
							<polygon id="path-154_00000062164902018128091430000002006554176913174946_" style="fill-rule:evenodd;clip-rule:evenodd;fill:url(#path-154_00000037678495303609006380000016242194734021531527_);fill-opacity:0.2;" points="
							500,450.5 550,500.5 500,550.5 450,500.5 						"/>
					</g>
				</g>
			</g>
		</g>
	</g>
</g>
<g id="Layer_3">
	<rect x="826.3" y="136.4" transform="matrix(0.9275 -0.3739 0.3739 0.9275 8.7629 466.3183)" width="759.7" height="148.3"/>
	
		<rect x="753.8" y="162.2" transform="matrix(0.9275 -0.3739 0.3739 0.9275 -18.541 483.5869)" class="st0" width="966.5" height="254.7"/>
	<text transform="matrix(0.9275 -0.3739 0.3739 0.9275 904.8099 373.7848)" class="st41 st42 st43">Lorenzo Vannucci</text>
</g>
</svg>
